<?xml version="1.0" encoding="UTF-8"?>
<svg width="460px" height="351px" viewBox="0 0 460 351" version="1.1" xmlns="http://www.w3.org/2000/svg" xmlns:xlink="http://www.w3.org/1999/xlink">
    <!-- Generator: Sketch 63.1 (92452) - https://sketch.com -->
    <title>Frame 9</title>
    <desc>Created with Sketch.</desc>
    <g id="Page-1" stroke="none" stroke-width="1" fill="none" fill-rule="evenodd">
        <g id="Frame-9" transform="translate(-310.000000, -759.000000)">
            <g id="Group-7" transform="translate(383.000000, 805.000000)">
                <path d="M123.5,0 C191.707,0 247,55.293 247,123.5 C247,191.707 191.707,247 123.5,247 C55.293,247 0,191.707 0,123.5 C0,55.293 55.293,0 123.5,0" id="Fill-1" fill="#EB001B"></path>
                <path d="M189,0 C257.207,0 312.5,55.293 312.5,123.5 C312.5,191.707 257.207,247 189,247 C120.793,247 65.5,191.707 65.5,123.5 C65.5,55.293 120.793,0 189,0" id="Fill-3" fill="#F79E1B"></path>
                <path d="M247,123.5 C247,66.633 208.561,18.75 156.25,4.398 C103.939,18.75 65.5,66.633 65.5,123.5 C65.5,180.367 103.939,228.25 156.25,242.602 C208.561,228.25 247,180.367 247,123.5" id="Fill-5" fill="#FF5F00"></path>
            </g>
        </g>
    </g>
</svg>