<?xml version="1.0" encoding="UTF-8"?>
<svg width="460px" height="350px" viewBox="0 0 460 350" version="1.1" xmlns="http://www.w3.org/2000/svg" xmlns:xlink="http://www.w3.org/1999/xlink">
    <!-- Generator: Sketch 63.1 (92452) - https://sketch.com -->
    <title>Frame 33</title>
    <desc>Created with Sketch.</desc>
    <g id="Page-1" stroke="none" stroke-width="1" fill="none" fill-rule="evenodd">
        <g id="Frame-33" transform="translate(-310.000000, -760.000000)">
            <g id="Group-15" transform="translate(418.000000, 923.000000)">
                <path d="M90.5,91 C99.613,91 107,98.388 107,107.5 C107,116.612 99.613,124 90.5,124 C81.387,124 74,116.612 74,107.5 C74,98.388 81.387,91 90.5,91" id="Fill-1" fill="#FF5F00"></path>
                <path d="M144,35 C154.493,35 163,43.507 163,54 C163,64.493 154.493,73 144,73 C133.507,73 125,64.493 125,54 C125,43.507 133.507,35 144,35" id="Fill-3" fill="#FF5F00"></path>
                <path d="M39,29 C47.836,29 55,36.164 55,45 C55,53.837 47.836,61 39,61 C30.164,61 23,53.837 23,45 C23,36.164 30.164,29 39,29" id="Fill-5" fill="#F79E1B"></path>
                <path d="M16,0 C24.836,0 32,7.164 32,16 C32,24.836 24.836,32 16,32 C7.164,32 0,24.836 0,16 C0,7.164 7.164,0 16,0" id="Fill-7" fill="#F79E1B"></path>
                <path d="M117.5,64.5 C127.165,64.5 135,72.335 135,82 C135,91.665 127.165,99.5 117.5,99.5 C107.835,99.5 100,91.665 100,82 C100,72.335 107.835,64.5 117.5,64.5" id="Fill-9" fill="#FF5F00"></path>
                <path d="M64,60 C72.836,60 80,67.163 80,76 C80,84.837 72.836,92 64,92 C55.164,92 48,84.837 48,76 C48,67.163 55.164,60 64,60" id="Fill-11" fill="#F79E1B"></path>
                <path d="M170,6 C180.493,6 189,14.507 189,25 C189,35.493 180.493,44 170,44 C159.507,44 151,35.493 151,25 C151,14.507 159.507,6 170,6" id="Fill-13" fill="#FF5F00"></path>
            </g>
        </g>
    </g>
</svg>