<?xml version="1.0" encoding="UTF-8"?>
<svg width="460px" height="351px" viewBox="0 0 460 351" version="1.1" xmlns="http://www.w3.org/2000/svg" xmlns:xlink="http://www.w3.org/1999/xlink">
    <!-- Generator: Sketch 63.1 (92452) - https://sketch.com -->
    <title>Frame 7</title>
    <desc>Created with Sketch.</desc>
    <g id="Page-1" stroke="none" stroke-width="1" fill="none" fill-rule="evenodd">
        <g id="Frame-7" transform="translate(-310.000000, -759.000000)">
            <g id="Group-7" transform="translate(360.000000, 805.000000)">
                <path d="M123.5,0 C191.707,0 247,55.293 247,123.5 C247,191.707 191.707,247 123.5,247 C55.293,247 0,191.707 0,123.5 C0,55.293 55.293,0 123.5,0" id="Fill-1" fill="#EB001B"></path>
                <path d="M236,0 C304.207,0 359.5,55.293 359.5,123.5 C359.5,191.707 304.207,247 236,247 C167.793,247 112.5,191.707 112.5,123.5 C112.5,55.293 167.793,0 236,0" id="Fill-3" fill="#F79E1B"></path>
                <path d="M247,123.5 C247,75.553 219.676,33.987 179.75,13.524 C139.824,33.987 112.5,75.553 112.5,123.5 C112.5,171.447 139.824,213.013 179.75,233.476 C219.676,213.013 247,171.447 247,123.5" id="Fill-5" fill="#FF5F00"></path>
            </g>
        </g>
    </g>
</svg>