<?xml version="1.0" encoding="UTF-8"?>
<svg width="460px" height="350px" viewBox="0 0 460 350" version="1.1" xmlns="http://www.w3.org/2000/svg" xmlns:xlink="http://www.w3.org/1999/xlink">
    <!-- Generator: Sketch 63.1 (92452) - https://sketch.com -->
    <title>Frame 39</title>
    <desc>Created with Sketch.</desc>
    <g id="Page-1" stroke="none" stroke-width="1" fill="none" fill-rule="evenodd">
        <g id="Frame-39" transform="translate(-310.000000, -760.000000)">
            <g id="Group-23" transform="translate(401.000000, 823.000000)">
                <path d="M90.5,191 C99.613,191 107,198.388 107,207.5 C107,216.612 99.613,224 90.5,224 C81.387,224 74,216.612 74,207.5 C74,198.388 81.387,191 90.5,191" id="Fill-1" fill="#F79E1B"></path>
                <path d="M144,138 C152.837,138 160,145.163 160,154 C160,162.837 152.837,170 144,170 C135.164,170 128,162.837 128,154 C128,145.163 135.164,138 144,138" id="Fill-3" fill="#F79E1B"></path>
                <path d="M39,129 C47.836,129 55,136.164 55,145 C55,153.837 47.836,161 39,161 C30.164,161 23,153.837 23,145 C23,136.164 30.164,129 39,129" id="Fill-5" fill="#F79E1B"></path>
                <path d="M16,100 C24.836,100 32,107.164 32,116 C32,124.836 24.836,132 16,132 C7.164,132 0,124.836 0,116 C0,107.164 7.164,100 16,100" id="Fill-7" fill="#F79E1B"></path>
                <path d="M117,166 C125.836,166 133,173.163 133,182 C133,190.837 125.836,198 117,198 C108.164,198 101,190.837 101,182 C101,173.163 108.164,166 117,166" id="Fill-9" fill="#F79E1B"></path>
                <path d="M64,160 C72.836,160 80,167.163 80,176 C80,184.837 72.836,192 64,192 C55.164,192 48,184.837 48,176 C48,167.163 55.164,160 64,160" id="Fill-11" fill="#F79E1B"></path>
                <path d="M170,109 C178.837,109 186,116.164 186,125 C186,133.836 178.837,141 170,141 C161.163,141 154,133.836 154,125 C154,116.164 161.163,109 170,109" id="Fill-13" fill="#F79E1B"></path>
                <path d="M196,81 C204.837,81 212,88.164 212,97 C212,105.836 204.837,113 196,113 C187.163,113 180,105.836 180,97 C180,88.164 187.163,81 196,81" id="Fill-15" fill="#F79E1B"></path>
                <path d="M220.5,53 C229.337,53 236.5,60.164 236.5,69 C236.5,77.836 229.337,85 220.5,85 C211.663,85 204.5,77.836 204.5,69 C204.5,60.164 211.663,53 220.5,53" id="Fill-17" fill="#F79E1B"></path>
                <path d="M246,26.5 C254.837,26.5 262,33.664 262,42.5 C262,51.336 254.837,58.5 246,58.5 C237.163,58.5 230,51.336 230,42.5 C230,33.664 237.163,26.5 246,26.5" id="Fill-19" fill="#F79E1B"></path>
                <path d="M269,0 C277.837,0 285,7.164 285,16 C285,24.836 277.837,32 269,32 C260.163,32 253,24.836 253,16 C253,7.164 260.163,0 269,0" id="Fill-21" fill="#FF5F00"></path>
            </g>
        </g>
    </g>
</svg>