<?xml version="1.0" encoding="UTF-8"?>
<svg width="460px" height="350px" viewBox="0 0 460 350" version="1.1" xmlns="http://www.w3.org/2000/svg" xmlns:xlink="http://www.w3.org/1999/xlink">
    <!-- Generator: Sketch 63.1 (92452) - https://sketch.com -->
    <title>Frame 34</title>
    <desc>Created with Sketch.</desc>
    <g id="Page-1" stroke="none" stroke-width="1" fill="none" fill-rule="evenodd">
        <g id="Frame-34" transform="translate(-310.000000, -760.000000)">
            <g id="Group-17" transform="translate(413.000000, 901.000000)">
                <path d="M90.5,113 C99.613,113 107,120.388 107,129.5 C107,138.612 99.613,146 90.5,146 C81.387,146 74,138.612 74,129.5 C74,120.388 81.387,113 90.5,113" id="Fill-1" fill="#F79E1B"></path>
                <path d="M144,58 C153.665,58 161.5,65.835 161.5,75.5 C161.5,85.165 153.665,93 144,93 C134.335,93 126.5,85.165 126.5,75.5 C126.5,65.835 134.335,58 144,58" id="Fill-3" fill="#FF5F00"></path>
                <path d="M39,51 C47.836,51 55,58.164 55,67 C55,75.837 47.836,83 39,83 C30.164,83 23,75.837 23,67 C23,58.164 30.164,51 39,51" id="Fill-5" fill="#F79E1B"></path>
                <path d="M16,22 C24.836,22 32,29.164 32,38 C32,46.836 24.836,54 16,54 C7.164,54 0,46.836 0,38 C0,29.164 7.164,22 16,22" id="Fill-7" fill="#F79E1B"></path>
                <path d="M117,88 C125.836,88 133,95.163 133,104 C133,112.837 125.836,120 117,120 C108.164,120 101,112.837 101,104 C101,95.163 108.164,88 117,88" id="Fill-9" fill="#FF5F00"></path>
                <path d="M64,82 C72.836,82 80,89.163 80,98 C80,106.837 72.836,114 64,114 C55.164,114 48,106.837 48,98 C48,89.163 55.164,82 64,82" id="Fill-11" fill="#F79E1B"></path>
                <path d="M169.5,30 C179.165,30 187,37.835 187,47.5 C187,57.165 179.165,65 169.5,65 C159.835,65 152,57.165 152,47.5 C152,37.835 159.835,30 169.5,30" id="Fill-13" fill="#FF5F00"></path>
                <path d="M195.5,0 C205.717,0 214,8.283 214,18.5 C214,28.717 205.717,37 195.5,37 C185.283,37 177,28.717 177,18.5 C177,8.283 185.283,0 195.5,0" id="Fill-15" fill="#FF5F00"></path>
            </g>
        </g>
    </g>
</svg>