<?xml version="1.0" encoding="UTF-8"?>
<svg width="460px" height="350px" viewBox="0 0 460 350" version="1.1" xmlns="http://www.w3.org/2000/svg" xmlns:xlink="http://www.w3.org/1999/xlink">
    <!-- Generator: Sketch 63.1 (92452) - https://sketch.com -->
    <title>Frame 31</title>
    <desc>Created with Sketch.</desc>
    <g id="Page-1" stroke="none" stroke-width="1" fill="none" fill-rule="evenodd">
        <g id="Frame-31" transform="translate(-310.000000, -760.000000)">
            <g id="Group-11" transform="translate(434.000000, 923.000000)">
                <path d="M64.5,59 C74.165,59 82,66.835 82,76.5 C82,86.165 74.165,94 64.5,94 C54.835,94 47,86.165 47,76.5 C47,66.835 54.835,59 64.5,59" id="Fill-1" fill="#FF5F00"></path>
                <path d="M117.5,73 C122.747,73 127,77.253 127,82.5 C127,87.747 122.747,92 117.5,92 C112.253,92 108,87.747 108,82.5 C108,77.253 112.253,73 117.5,73" id="Fill-3" fill="#FF5F00"></path>
                <path d="M39,29 C47.836,29 55,36.164 55,45 C55,53.837 47.836,61 39,61 C30.164,61 23,53.837 23,45 C23,36.164 30.164,29 39,29" id="Fill-5" fill="#FF5F00"></path>
                <path d="M16,0 C24.836,0 32,7.164 32,16 C32,24.836 24.836,32 16,32 C7.164,32 0,24.836 0,16 C0,7.164 7.164,0 16,0" id="Fill-7" fill="#F79E1B"></path>
                <path d="M90.5,89 C100.717,89 109,97.283 109,107.5 C109,117.717 100.717,126 90.5,126 C80.283,126 72,117.717 72,107.5 C72,97.283 80.283,89 90.5,89" id="Fill-9" fill="#FF5F00"></path>
            </g>
        </g>
    </g>
</svg>