<?xml version="1.0" encoding="UTF-8"?>
<svg width="460px" height="350px" viewBox="0 0 460 350" version="1.1" xmlns="http://www.w3.org/2000/svg" xmlns:xlink="http://www.w3.org/1999/xlink">
    <!-- Generator: Sketch 63.1 (92452) - https://sketch.com -->
    <title>Frame 35</title>
    <desc>Created with Sketch.</desc>
    <g id="Page-1" stroke="none" stroke-width="1" fill="none" fill-rule="evenodd">
        <g id="Frame-35" transform="translate(-310.000000, -760.000000)">
            <g id="Group-19" transform="translate(409.000000, 874.000000)">
                <path d="M90.5,140 C99.613,140 107,147.388 107,156.5 C107,165.612 99.613,173 90.5,173 C81.387,173 74,165.612 74,156.5 C74,147.388 81.387,140 90.5,140" id="Fill-1" fill="#F79E1B"></path>
                <path d="M144,87 C152.837,87 160,94.163 160,103 C160,111.837 152.837,119 144,119 C135.163,119 128,111.837 128,103 C128,94.163 135.163,87 144,87" id="Fill-3" fill="#FF5F00"></path>
                <path d="M39,78 C47.836,78 55,85.164 55,94 C55,102.837 47.836,110 39,110 C30.164,110 23,102.837 23,94 C23,85.164 30.164,78 39,78" id="Fill-5" fill="#F79E1B"></path>
                <path d="M16,49 C24.836,49 32,56.164 32,65 C32,73.836 24.836,81 16,81 C7.164,81 0,73.836 0,65 C0,56.164 7.164,49 16,49" id="Fill-7" fill="#F79E1B"></path>
                <path d="M117,115 C125.836,115 133,122.163 133,131 C133,139.837 125.836,147 117,147 C108.164,147 101,139.837 101,131 C101,122.163 108.164,115 117,115" id="Fill-9" fill="#F79E1B"></path>
                <path d="M64,109 C72.836,109 80,116.163 80,125 C80,133.837 72.836,141 64,141 C55.164,141 48,133.837 48,125 C48,116.163 55.164,109 64,109" id="Fill-11" fill="#F79E1B"></path>
                <path d="M170,58 C178.837,58 186,65.164 186,74 C186,82.836 178.837,90 170,90 C161.163,90 154,82.836 154,74 C154,65.164 161.163,58 170,58" id="Fill-13" fill="#FF5F00"></path>
                <path d="M195.5,28 C205.165,28 213,35.835 213,45.5 C213,55.165 205.165,63 195.5,63 C185.835,63 178,55.165 178,45.5 C178,35.835 185.835,28 195.5,28" id="Fill-15" fill="#FF5F00"></path>
                <path d="M220.5,0 C230.717,0 239,8.283 239,18.5 C239,28.717 230.717,37 220.5,37 C210.283,37 202,28.717 202,18.5 C202,8.283 210.283,0 220.5,0" id="Fill-17" fill="#FF5F00"></path>
            </g>
        </g>
    </g>
</svg>