<?xml version="1.0" encoding="UTF-8"?>
<svg width="460px" height="350px" viewBox="0 0 460 350" version="1.1" xmlns="http://www.w3.org/2000/svg" xmlns:xlink="http://www.w3.org/1999/xlink">
    <!-- Generator: Sketch 63.1 (92452) - https://sketch.com -->
    <title>Frame 36</title>
    <desc>Created with Sketch.</desc>
    <g id="Page-1" stroke="none" stroke-width="1" fill="none" fill-rule="evenodd">
        <g id="Frame-36" transform="translate(-310.000000, -760.000000)">
            <g id="Group-21" transform="translate(406.000000, 847.000000)">
                <path d="M90.5,167 C99.613,167 107,174.388 107,183.5 C107,192.612 99.613,200 90.5,200 C81.387,200 74,192.612 74,183.5 C74,174.388 81.387,167 90.5,167" id="Fill-1" fill="#F79E1B"></path>
                <path d="M144,114 C152.837,114 160,121.163 160,130 C160,138.837 152.837,146 144,146 C135.163,146 128,138.837 128,130 C128,121.163 135.163,114 144,114" id="Fill-3" fill="#F79E1B"></path>
                <path d="M39,105 C47.836,105 55,112.164 55,121 C55,129.837 47.836,137 39,137 C30.164,137 23,129.837 23,121 C23,112.164 30.164,105 39,105" id="Fill-5" fill="#F79E1B"></path>
                <path d="M16,76 C24.836,76 32,83.164 32,92 C32,100.836 24.836,108 16,108 C7.164,108 0,100.836 0,92 C0,83.164 7.164,76 16,76" id="Fill-7" fill="#F79E1B"></path>
                <path d="M117,142 C125.836,142 133,149.163 133,158 C133,166.837 125.836,174 117,174 C108.164,174 101,166.837 101,158 C101,149.163 108.164,142 117,142" id="Fill-9" fill="#F79E1B"></path>
                <path d="M64,136 C72.836,136 80,143.163 80,152 C80,160.837 72.836,168 64,168 C55.164,168 48,160.837 48,152 C48,143.163 55.164,136 64,136" id="Fill-11" fill="#F79E1B"></path>
                <path d="M170,85 C178.837,85 186,92.164 186,101 C186,109.836 178.837,117 170,117 C161.163,117 154,109.836 154,101 C154,92.164 161.163,85 170,85" id="Fill-13" fill="#F79E1B"></path>
                <path d="M196,57 C204.837,57 212,64.164 212,73 C212,81.836 204.837,89 196,89 C187.163,89 180,81.836 180,73 C180,64.164 187.163,57 196,57" id="Fill-15" fill="#FF5F00"></path>
                <path d="M220.5,28 C230.165,28 238,35.835 238,45.5 C238,55.165 230.165,63 220.5,63 C210.835,63 203,55.165 203,45.5 C203,35.835 210.835,28 220.5,28" id="Fill-17" fill="#FF5F00"></path>
                <path d="M245.5,0 C255.717,0 264,8.283 264,18.5 C264,28.717 255.717,37 245.5,37 C235.283,37 227,28.717 227,18.5 C227,8.283 235.283,0 245.5,0" id="Fill-19" fill="#FF5F00"></path>
            </g>
        </g>
    </g>
</svg>