<?xml version="1.0" encoding="UTF-8"?>
<svg width="460px" height="350px" viewBox="0 0 460 350" version="1.1" xmlns="http://www.w3.org/2000/svg" xmlns:xlink="http://www.w3.org/1999/xlink">
    <!-- Generator: Sketch 63.1 (92452) - https://sketch.com -->
    <title>Frame 24</title>
    <desc>Created with Sketch.</desc>
    <g id="Page-1" stroke="none" stroke-width="1" fill="none" fill-rule="evenodd">
        <g id="Frame-24" transform="translate(-310.000000, -760.000000)">
            <g id="Group-7" transform="translate(466.500000, 912.000000)">
                <path d="M27,0 C41.912,0 54,12.088 54,27 C54,41.912 41.912,54 27,54 C12.088,54 0,41.912 0,27 C0,12.088 12.088,0 27,0" id="Fill-1" fill="#EB001B"></path>
                <path d="M70.5,11 C85.412,11 97.5,23.088 97.5,38 C97.5,52.912 85.412,65 70.5,65 C55.588,65 43.5,52.912 43.5,38 C43.5,23.088 55.588,11 70.5,11" id="Fill-3" fill="#F79E1B"></path>
                <path d="M54,27 C54,23.8 53.4,20.8 52.4,17.9 C46.9,22.8 43.5,30 43.5,38 C43.5,41.2 44.1,44.2 45.1,47.1 C50.5,42.1 54,35 54,27" id="Fill-5" fill="#FF5F00"></path>
            </g>
        </g>
    </g>
</svg>