<?xml version="1.0" encoding="UTF-8"?>
<svg width="460px" height="350px" viewBox="0 0 460 350" version="1.1" xmlns="http://www.w3.org/2000/svg" xmlns:xlink="http://www.w3.org/1999/xlink">
    <!-- Generator: Sketch 63.1 (92452) - https://sketch.com -->
    <title>Frame 29</title>
    <desc>Created with Sketch.</desc>
    <g id="Page-1" stroke="none" stroke-width="1" fill="none" fill-rule="evenodd">
        <g id="Frame-29" transform="translate(-310.000000, -760.000000)" fill="#FF5F00">
            <g id="Group-7" transform="translate(460.000000, 923.000000)">
                <path d="M38.5,26 C48.717,26 57,34.283 57,44.5 C57,54.717 48.717,63 38.5,63 C28.283,63 20,54.717 20,44.5 C20,34.283 28.283,26 38.5,26" id="Fill-1"></path>
                <path d="M64.7998,67 C70.0468,67 74.2998,71.253 74.2998,76.5 C74.2998,81.747 70.0468,86 64.7998,86 C59.5528,86 55.2998,81.747 55.2998,76.5 C55.2998,71.253 59.5528,67 64.7998,67" id="Fill-3"></path>
                <path d="M16,0 C24.836,0 32,7.164 32,16 C32,24.836 24.836,32 16,32 C7.164,32 0,24.836 0,16 C0,7.164 7.164,0 16,0" id="Fill-5"></path>
            </g>
        </g>
    </g>
</svg>