<?xml version="1.0" encoding="UTF-8"?>
<svg width="460px" height="350px" viewBox="0 0 460 350" version="1.1" xmlns="http://www.w3.org/2000/svg" xmlns:xlink="http://www.w3.org/1999/xlink">
    <!-- Generator: Sketch 63.1 (92452) - https://sketch.com -->
    <title>Frame 38</title>
    <desc>Created with Sketch.</desc>
    <g id="Page-1" stroke="none" stroke-width="1" fill="none" fill-rule="evenodd">
        <g id="Frame-38" transform="translate(-310.000000, -760.000000)">
            <g id="Group-23" transform="translate(402.000000, 821.000000)">
                <path d="M90.5,193 C99.613,193 107,200.388 107,209.5 C107,218.612 99.613,226 90.5,226 C81.387,226 74,218.612 74,209.5 C74,200.388 81.387,193 90.5,193" id="Fill-1" fill="#F79E1B"></path>
                <path d="M144,140 C152.837,140 160,147.163 160,156 C160,164.837 152.837,172 144,172 C135.164,172 128,164.837 128,156 C128,147.163 135.164,140 144,140" id="Fill-3" fill="#F79E1B"></path>
                <path d="M39,131 C47.836,131 55,138.164 55,147 C55,155.837 47.836,163 39,163 C30.164,163 23,155.837 23,147 C23,138.164 30.164,131 39,131" id="Fill-5" fill="#F79E1B"></path>
                <path d="M16,102 C24.836,102 32,109.164 32,118 C32,126.836 24.836,134 16,134 C7.164,134 0,126.836 0,118 C0,109.164 7.164,102 16,102" id="Fill-7" fill="#F79E1B"></path>
                <path d="M117,168 C125.836,168 133,175.163 133,184 C133,192.837 125.836,200 117,200 C108.164,200 101,192.837 101,184 C101,175.163 108.164,168 117,168" id="Fill-9" fill="#F79E1B"></path>
                <path d="M64,162 C72.836,162 80,169.163 80,178 C80,186.837 72.836,194 64,194 C55.164,194 48,186.837 48,178 C48,169.163 55.164,162 64,162" id="Fill-11" fill="#F79E1B"></path>
                <path d="M170,111 C178.837,111 186,118.164 186,127 C186,135.836 178.837,143 170,143 C161.163,143 154,135.836 154,127 C154,118.164 161.163,111 170,111" id="Fill-13" fill="#F79E1B"></path>
                <path d="M196,83 C204.837,83 212,90.164 212,99 C212,107.836 204.837,115 196,115 C187.163,115 180,107.836 180,99 C180,90.164 187.163,83 196,83" id="Fill-15" fill="#F79E1B"></path>
                <path d="M220.5,55 C229.337,55 236.5,62.164 236.5,71 C236.5,79.836 229.337,87 220.5,87 C211.663,87 204.5,79.836 204.5,71 C204.5,62.164 211.663,55 220.5,55" id="Fill-17" fill="#F79E1B"></path>
                <path d="M246,28.5 C254.837,28.5 262,35.664 262,44.5 C262,53.336 254.837,60.5 246,60.5 C237.163,60.5 230,53.336 230,44.5 C230,35.664 237.163,28.5 246,28.5" id="Fill-19" fill="#FF5F00"></path>
                <path d="M269.5,0 C279.165,0 287,7.835 287,17.5 C287,27.165 279.165,35 269.5,35 C259.835,35 252,27.165 252,17.5 C252,7.835 259.835,0 269.5,0" id="Fill-21" fill="#FF5F00"></path>
            </g>
        </g>
    </g>
</svg>