<?xml version="1.0" encoding="UTF-8"?>
<svg width="460px" height="350px" viewBox="0 0 460 350" version="1.1" xmlns="http://www.w3.org/2000/svg" xmlns:xlink="http://www.w3.org/1999/xlink">
    <!-- Generator: Sketch 63.1 (92452) - https://sketch.com -->
    <title>Frame 15</title>
    <desc>Created with Sketch.</desc>
    <g id="Page-1" stroke="none" stroke-width="1" fill="none" fill-rule="evenodd">
        <g id="Frame-15" transform="translate(-310.000000, -760.000000)">
            <g id="Group-7" transform="translate(344.000000, 806.000000)">
                <path d="M296.5,27.7998 C353.386,27.7998 399.5,73.9148 399.5,130.7998 C399.5,187.6858 353.386,233.7998 296.5,233.7998 C239.614,233.7998 193.5,187.6858 193.5,130.7998 C193.5,73.9148 239.614,27.7998 296.5,27.7998" id="Fill-1" fill="#EB001B"></path>
                <path d="M103,0 C159.885,0 206,46.115 206,103 C206,159.886 159.885,206 103,206 C46.115,206 0,159.886 0,103 C0,46.115 46.115,0 103,0" id="Fill-3" fill="#F79E1B"></path>
                <path d="M204.4004,84.7001 C197.4004,98.6001 193.5004,114.2001 193.5004,130.8001 C193.5004,137.0001 194.1004,143.1001 195.1004,149.1001 C202.0994,135.2001 206.0004,119.6001 206.0004,103.0001 C206.0004,96.8001 205.4004,90.7001 204.4004,84.7001" id="Fill-5" fill="#FF5F00"></path>
            </g>
        </g>
    </g>
</svg>