<?xml version="1.0" encoding="UTF-8"?>
<svg width="460px" height="350px" viewBox="0 0 460 350" version="1.1" xmlns="http://www.w3.org/2000/svg" xmlns:xlink="http://www.w3.org/1999/xlink">
    <!-- Generator: Sketch 63.1 (92452) - https://sketch.com -->
    <title>Frame 37</title>
    <desc>Created with Sketch.</desc>
    <g id="Page-1" stroke="none" stroke-width="1" fill="none" fill-rule="evenodd">
        <g id="Frame-37" transform="translate(-310.000000, -760.000000)">
            <g id="Group-23" transform="translate(404.000000, 820.000000)">
                <path d="M90.5,194 C99.613,194 107,201.388 107,210.5 C107,219.612 99.613,227 90.5,227 C81.387,227 74,219.612 74,210.5 C74,201.388 81.387,194 90.5,194" id="Fill-1" fill="#F79E1B"></path>
                <path d="M144,141 C152.837,141 160,148.163 160,157 C160,165.837 152.837,173 144,173 C135.164,173 128,165.837 128,157 C128,148.163 135.164,141 144,141" id="Fill-3" fill="#F79E1B"></path>
                <path d="M39,132 C47.836,132 55,139.164 55,148 C55,156.837 47.836,164 39,164 C30.164,164 23,156.837 23,148 C23,139.164 30.164,132 39,132" id="Fill-5" fill="#F79E1B"></path>
                <path d="M16,103 C24.836,103 32,110.164 32,119 C32,127.836 24.836,135 16,135 C7.164,135 0,127.836 0,119 C0,110.164 7.164,103 16,103" id="Fill-7" fill="#F79E1B"></path>
                <path d="M117,169 C125.836,169 133,176.163 133,185 C133,193.837 125.836,201 117,201 C108.164,201 101,193.837 101,185 C101,176.163 108.164,169 117,169" id="Fill-9" fill="#F79E1B"></path>
                <path d="M64,163 C72.836,163 80,170.163 80,179 C80,187.837 72.836,195 64,195 C55.164,195 48,187.837 48,179 C48,170.163 55.164,163 64,163" id="Fill-11" fill="#F79E1B"></path>
                <path d="M170,112 C178.837,112 186,119.164 186,128 C186,136.836 178.837,144 170,144 C161.163,144 154,136.836 154,128 C154,119.164 161.163,112 170,112" id="Fill-13" fill="#F79E1B"></path>
                <path d="M196,84 C204.837,84 212,91.164 212,100 C212,108.836 204.837,116 196,116 C187.163,116 180,108.836 180,100 C180,91.164 187.163,84 196,84" id="Fill-15" fill="#F79E1B"></path>
                <path d="M220,56 C228.837,56 236,63.164 236,72 C236,80.836 228.837,88 220,88 C211.163,88 204,80.836 204,72 C204,63.164 211.163,56 220,56" id="Fill-17" fill="#FF5F00"></path>
                <path d="M245.5,28 C255.165,28 263,35.835 263,45.5 C263,55.165 255.165,63 245.5,63 C235.835,63 228,55.165 228,45.5 C228,35.835 235.835,28 245.5,28" id="Fill-19" fill="#FF5F00"></path>
                <path d="M268.5,0 C278.717,0 287,8.283 287,18.5 C287,28.717 278.717,37 268.5,37 C258.283,37 250,28.717 250,18.5 C250,8.283 258.283,0 268.5,0" id="Fill-21" fill="#FF5F00"></path>
            </g>
        </g>
    </g>
</svg>