<?xml version="1.0" encoding="UTF-8"?>
<svg width="460px" height="350px" viewBox="0 0 460 350" version="1.1" xmlns="http://www.w3.org/2000/svg" xmlns:xlink="http://www.w3.org/1999/xlink">
    <!-- Generator: Sketch 63.1 (92452) - https://sketch.com -->
    <title>Frame 32</title>
    <desc>Created with Sketch.</desc>
    <g id="Page-1" stroke="none" stroke-width="1" fill="none" fill-rule="evenodd">
        <g id="Frame-32" transform="translate(-310.000000, -760.000000)">
            <g id="Group-13" transform="translate(425.000000, 923.000000)">
                <path d="M90.5,90 C100.165,90 108,97.835 108,107.5 C108,117.165 100.165,125 90.5,125 C80.835,125 73,117.165 73,107.5 C73,97.835 80.835,90 90.5,90" id="Fill-1" fill="#FF5F00"></path>
                <path d="M144.5,44 C149.747,44 154,48.253 154,53.5 C154,58.747 149.747,63 144.5,63 C139.253,63 135,58.747 135,53.5 C135,48.253 139.253,44 144.5,44" id="Fill-3" fill="#FF5F00"></path>
                <path d="M39,29 C47.836,29 55,36.164 55,45 C55,53.837 47.836,61 39,61 C30.164,61 23,53.837 23,45 C23,36.164 30.164,29 39,29" id="Fill-5" fill="#F79E1B"></path>
                <path d="M16,0 C24.836,0 32,7.164 32,16 C32,24.836 24.836,32 16,32 C7.164,32 0,24.836 0,16 C0,7.164 7.164,0 16,0" id="Fill-7" fill="#F79E1B"></path>
                <path d="M117,63 C127.493,63 136,71.507 136,82 C136,92.493 127.493,101 117,101 C106.507,101 98,92.493 98,82 C98,71.507 106.507,63 117,63" id="Fill-9" fill="#FF5F00"></path>
                <path d="M64,60 C72.836,60 80,67.163 80,76 C80,84.837 72.836,92 64,92 C55.164,92 48,84.837 48,76 C48,67.163 55.164,60 64,60" id="Fill-11" fill="#FF5F00"></path>
            </g>
        </g>
    </g>
</svg>