<?xml version="1.0" encoding="UTF-8"?>
<svg width="460px" height="351px" viewBox="0 0 460 351" version="1.1" xmlns="http://www.w3.org/2000/svg" xmlns:xlink="http://www.w3.org/1999/xlink">
    <!-- Generator: Sketch 63.1 (92452) - https://sketch.com -->
    <title>Frame 6</title>
    <desc>Created with Sketch.</desc>
    <g id="Page-1" stroke="none" stroke-width="1" fill="none" fill-rule="evenodd">
        <g id="Frame-6" transform="translate(-310.000000, -759.000000)">
            <g id="Group-7" transform="translate(353.500000, 805.000000)">
                <path d="M123.5,0 C191.707,0 247,55.293 247,123.5 C247,191.707 191.707,247 123.5,247 C55.293,247 0,191.707 0,123.5 C0,55.293 55.293,0 123.5,0" id="Fill-1" fill="#EB001B"></path>
                <path d="M249.5,0 C317.707,0 373,55.293 373,123.5 C373,191.707 317.707,247 249.5,247 C181.293,247 126,191.707 126,123.5 C126,55.293 181.293,0 249.5,0" id="Fill-3" fill="#F79E1B"></path>
                <path d="M247,123.5 C247,78.308 222.721,38.792 186.5,17.265 C150.279,38.792 126,78.308 126,123.5 C126,168.692 150.279,208.208 186.5,229.734 C222.721,208.208 247,168.692 247,123.5" id="Fill-5" fill="#FF5F00"></path>
            </g>
        </g>
    </g>
</svg>