<?xml version="1.0" encoding="UTF-8"?>
<svg width="460px" height="350px" viewBox="0 0 460 350" version="1.1" xmlns="http://www.w3.org/2000/svg" xmlns:xlink="http://www.w3.org/1999/xlink">
    <!-- Generator: Sketch 63.1 (92452) - https://sketch.com -->
    <title>Frame 14</title>
    <desc>Created with Sketch.</desc>
    <g id="Page-1" stroke="none" stroke-width="1" fill="none" fill-rule="evenodd">
        <g id="Frame-14" transform="translate(-310.000000, -760.000000)">
            <g id="Group-8" transform="translate(363.800000, 809.800000)">
                <path d="M241.7,12.2 C301.623,12.2 350.2,60.777 350.2,120.7 C350.2,180.623 301.623,229.2 241.7,229.2 C181.777,229.2 133.2,180.623 133.2,120.7 C133.2,60.777 181.777,12.2 241.7,12.2" id="Fill-1" fill="#EB001B"></path>
                <path d="M108.4998,0.9998 C168.4228,0.9998 216.9998,49.5768 216.9998,109.4998 C216.9998,169.4228 168.4228,217.9998 108.4998,217.9998 C48.5768,217.9998 -0.0002,169.4228 -0.0002,109.4998 C-0.0002,49.5768 48.5768,0.9998 108.4998,0.9998" id="Fill-3" fill="#F79E1B"></path>
                <path d="M216.9998,109.4998 C216.9998,77.9998 203.6008,49.6998 182.1998,29.8998 C152.6998,49.2998 133.0998,82.6998 133.0998,120.6998 C133.0998,152.1998 146.4998,180.4998 167.8998,200.2998 C197.4998,180.8998 216.9998,147.4998 216.9998,109.4998" id="Fill-6" fill="#FF5F00"></path>
            </g>
        </g>
    </g>
</svg>