<?xml version="1.0" encoding="UTF-8"?>
<svg width="460px" height="350px" viewBox="0 0 460 350" version="1.1" xmlns="http://www.w3.org/2000/svg" xmlns:xlink="http://www.w3.org/1999/xlink">
    <!-- Generator: Sketch 63.1 (92452) - https://sketch.com -->
    <title>Frame 25</title>
    <desc>Created with Sketch.</desc>
    <g id="Page-1" stroke="none" stroke-width="1" fill="none" fill-rule="evenodd">
        <g id="Frame-25" transform="translate(-310.000000, -760.000000)">
            <g id="Group-7" transform="translate(490.000000, 923.000000)">
                <path d="M17,1 C26.389,1 34,8.611 34,18 C34,27.389 26.389,35 17,35 C7.611,35 0,27.389 0,18 C0,8.611 7.611,1 17,1" id="Fill-1" fill="#EB001B"></path>
                <path d="M17,0 C26.389,0 34,7.611 34,17 C34,26.389 26.389,34 17,34 C7.611,34 0,26.389 0,17 C0,7.611 7.611,0 17,0" id="Fill-3" fill="#F79E1B"></path>
                <path d="M17,1 C26.389,1 34,8.387 34,17.5 C34,26.613 26.389,34 17,34 C7.611,34 0,26.613 0,17.5 C0,8.387 7.611,1 17,1" id="Fill-5" fill="#FF5F00"></path>
            </g>
        </g>
    </g>
</svg>