<?xml version="1.0" encoding="UTF-8"?>
<svg width="460px" height="351px" viewBox="0 0 460 351" version="1.1" xmlns="http://www.w3.org/2000/svg" xmlns:xlink="http://www.w3.org/1999/xlink">
    <!-- Generator: Sketch 63.1 (92452) - https://sketch.com -->
    <title>Frame 4</title>
    <desc>Created with Sketch.</desc>
    <g id="Page-1" stroke="none" stroke-width="1" fill="none" fill-rule="evenodd">
        <g id="Frame-4" transform="translate(-310.000000, -759.000000)">
            <g id="Group-7" transform="translate(345.500000, 805.000000)">
                <path d="M123.5,0 C191.707,0 247,55.293 247,123.5 C247,191.707 191.707,247 123.5,247 C55.293,247 0,191.707 0,123.5 C0,55.293 55.293,0 123.5,0" id="Fill-1" fill="#EB001B"></path>
                <path d="M265.5,0 C333.707,0 389,55.293 389,123.5 C389,191.707 333.707,247 265.5,247 C197.293,247 142,191.707 142,123.5 C142,55.293 197.293,0 265.5,0" id="Fill-3" fill="#F79E1B"></path>
                <path d="M247,123.5 C247,81.721 226.251,44.792 194.5,22.443 C162.749,44.792 142,81.721 142,123.5 C142,165.278 162.749,202.207 194.5,224.557 C226.251,202.207 247,165.278 247,123.5" id="Fill-5" fill="#FF5F00"></path>
            </g>
        </g>
    </g>
</svg>