<?xml version="1.0" encoding="UTF-8"?>
<svg width="460px" height="351px" viewBox="0 0 460 351" version="1.1" xmlns="http://www.w3.org/2000/svg" xmlns:xlink="http://www.w3.org/1999/xlink">
    <!-- Generator: Sketch 63.1 (92452) - https://sketch.com -->
    <title>Frame 2</title>
    <desc>Created with Sketch.</desc>
    <g id="Page-1" stroke="none" stroke-width="1" fill="none" fill-rule="evenodd">
        <g id="Frame-2" transform="translate(-310.000000, -759.000000)">
            <g id="Group-8" transform="translate(341.000000, 805.000000)">
                <path d="M123.5,0 C191.707,0 247,55.293 247,123.5 C247,191.707 191.707,247 123.5,247 C55.293,247 0,191.707 0,123.5 C0,55.293 55.293,0 123.5,0" id="Fill-1" fill="#EB001B"></path>
                <path d="M275.7002,0 C343.9072,0 399.2002,55.293 399.2002,123.5 C399.2002,191.707 343.9072,247 275.7002,247 C207.4932,247 152.2002,191.707 152.2002,123.5 C152.2002,55.293 207.4932,0 275.7002,0" id="Fill-3" fill="#F79E1B"></path>
                <path d="M247,123.5 C247,84.001 228.456,48.835 199.6,26.228 C170.744,48.835 152.2,84.001 152.2,123.5 C152.2,162.999 170.744,198.165 199.6,220.772 C228.456,198.165 247,162.999 247,123.5" id="Fill-6" fill="#FF5F00"></path>
            </g>
        </g>
    </g>
</svg>